<svg id="visual" viewBox="0 0 960 540" width="960" height="540" xmlns="http://www.w3.org/2000/svg" xmlns:xlink="http://www.w3.org/1999/xlink" version="1.1"><path d="M0 477L7.7 461.3C15.3 445.7 30.7 414.3 45.8 406.7C61 399 76 415 91.2 419.7C106.3 424.3 121.7 417.7 137 414.8C152.3 412 167.7 413 183 413.7C198.3 414.3 213.7 414.7 228.8 409.7C244 404.7 259 394.3 274.2 402.7C289.3 411 304.7 438 320 443.3C335.3 448.7 350.7 432.3 365.8 423.3C381 414.3 396 412.7 411.2 406.3C426.3 400 441.7 389 457 390.8C472.3 392.7 487.7 407.3 503 409.8C518.3 412.3 533.7 402.7 548.8 405.8C564 409 579 425 594.2 428.8C609.3 432.7 624.7 424.3 640 424.8C655.3 425.3 670.7 434.7 685.8 443.8C701 453 716 462 731.2 450.8C746.3 439.7 761.7 408.3 777 393.3C792.3 378.3 807.7 379.7 823 381.7C838.3 383.7 853.7 386.3 868.8 398.8C884 411.3 899 433.7 914.2 445.7C929.3 457.7 944.7 459.3 952.3 460.2L960 461L960 541L952.3 541C944.7 541 929.3 541 914.2 541C899 541 884 541 868.8 541C853.7 541 838.3 541 823 541C807.7 541 792.3 541 777 541C761.7 541 746.3 541 731.2 541C716 541 701 541 685.8 541C670.7 541 655.3 541 640 541C624.7 541 609.3 541 594.2 541C579 541 564 541 548.8 541C533.7 541 518.3 541 503 541C487.7 541 472.3 541 457 541C441.7 541 426.3 541 411.2 541C396 541 381 541 365.8 541C350.7 541 335.3 541 320 541C304.7 541 289.3 541 274.2 541C259 541 244 541 228.8 541C213.7 541 198.3 541 183 541C167.7 541 152.3 541 137 541C121.7 541 106.3 541 91.2 541C76 541 61 541 45.8 541C30.7 541 15.3 541 7.7 541L0 541Z" fill="#ffffff" stroke-linecap="round" stroke-linejoin="miter"></path></svg>