<svg id="visual" viewBox="0 0 900 600" width="900" height="600" xmlns="http://www.w3.org/2000/svg" xmlns:xlink="http://www.w3.org/1999/xlink" version="1.1"><path d="M0 530L7.2 512.7C14.3 495.3 28.7 460.7 43 452.2C57.3 443.7 71.7 461.3 86 466.3C100.3 471.3 114.7 463.7 128.8 460.5C143 457.3 157 458.7 171.2 459.5C185.3 460.3 199.7 460.7 214 455.2C228.3 449.7 242.7 438.3 257 447.7C271.3 457 285.7 487 300 492.8C314.3 498.7 328.7 480.3 343 470.3C357.3 460.3 371.7 458.7 386 451.7C400.3 444.7 414.7 432.3 428.8 434.3C443 436.3 457 452.7 471.2 455.5C485.3 458.3 499.7 447.7 514 451.2C528.3 454.7 542.7 472.3 557 476.5C571.3 480.7 585.7 471.3 600 471.8C614.3 472.3 628.7 482.7 643 493C657.3 503.3 671.7 513.7 686 501.3C700.3 489 714.7 454 728.8 437.3C743 420.7 757 422.3 771.2 424.7C785.3 427 799.7 430 814 443.7C828.3 457.3 842.7 481.7 857 494.8C871.3 508 885.7 510 892.8 511L900 512L900 601L892.8 601C885.7 601 871.3 601 857 601C842.7 601 828.3 601 814 601C799.7 601 785.3 601 771.2 601C757 601 743 601 728.8 601C714.7 601 700.3 601 686 601C671.7 601 657.3 601 643 601C628.7 601 614.3 601 600 601C585.7 601 571.3 601 557 601C542.7 601 528.3 601 514 601C499.7 601 485.3 601 471.2 601C457 601 443 601 428.8 601C414.7 601 400.3 601 386 601C371.7 601 357.3 601 343 601C328.7 601 314.3 601 300 601C285.7 601 271.3 601 257 601C242.7 601 228.3 601 214 601C199.7 601 185.3 601 171.2 601C157 601 143 601 128.8 601C114.7 601 100.3 601 86 601C71.7 601 57.3 601 43 601C28.7 601 14.3 601 7.2 601L0 601Z" fill="#ffffff" stroke-linecap="round" stroke-linejoin="miter"></path></svg>