<svg width="3604" height="737" viewBox="0 0 3604 737" fill="none" xmlns="http://www.w3.org/2000/svg">
<path d="M1.00012 357.716C8.95497 351.959 39.0488 325.35 86.8766 276.87C120.308 242.982 163.678 226.364 213.057 210.932C268.751 193.526 342.839 207.592 375.794 217.036C410.557 226.998 448.382 241.814 491.254 269.473C587.883 331.813 664.203 404.798 712.264 429.113C792.246 469.579 928.685 429.826 984.56 419.044C1070.75 402.41 1105.08 436.403 1178.24 487.398C1249.66 537.177 1328.21 553.68 1399.05 562.9C1444.5 568.816 1487.49 569.419 1577.87 567.518C1659.6 565.799 1710.9 541.035 1783.65 543.315C1854.15 545.525 1879.22 584.735 1938.05 614.976C1974.03 633.47 2015.45 615.737 2056.12 605.965C2092.39 597.252 2130.86 610.453 2156.2 624.276C2205.06 650.925 2244.88 711.227 2277.12 725.445C2338.85 752.673 2426.92 722.556 2476.95 684.393C2519.69 651.786 2545.57 625.972 2587.86 622.005C2624.99 618.521 2664.04 664.675 2719.59 669.504C2739.33 671.22 2754.13 657.857 2770.61 638.565C2848.9 546.945 2868.8 414.729 2885.85 378.814C2890.59 368.846 2896.11 358.865 2902.49 351.262C2914.35 337.147 2949.87 333.304 2994.22 334.083C3021.59 334.563 3037.44 346.759 3051.22 360.123C3084.8 392.68 3099.2 435.45 3132.58 461.356C3182.24 499.899 3266.49 470.531 3299.29 455.39C3316.66 447.373 3326.65 430.399 3333.97 411.384C3372.4 311.551 3351.39 130.647 3362.57 80.2412C3370.36 45.1209 3387.74 18.3162 3400.86 7.32935C3426.3 -13.9697 3495.6 23.5653 3523.5 44.929C3555.5 69.429 3570.05 128.643 3602.5 135.929" stroke="white" stroke-width="2" stroke-linecap="round"/>
</svg>
